<?xml version="1.0" standalone="no"?>
<!DOCTYPE svg PUBLIC "-//W3C//DTD SVG 20010904//EN"
 "http://www.w3.org/TR/2001/REC-SVG-20010904/DTD/svg10.dtd">
<svg version="1.0" xmlns="http://www.w3.org/2000/svg"
 width="313.000000pt" height="403.000000pt" viewBox="0 0 313.000000 403.000000"
 preserveAspectRatio="xMidYMid meet">
<metadata>
Created by potrace 1.16, written by Peter Selinger 2001-2019
</metadata>
<g transform="translate(0.000000,403.000000) scale(0.100000,-0.100000)"
fill="#000000" stroke="none">
<path d="M1402 2055 c-7 -15 -8 -24 -2 -20 7 4 10 -168 10 -517 l0 -523 -242
241 -243 242 -33 -14 c-41 -18 -80 -3 -100 39 -11 23 -11 32 2 59 9 17 14 33
11 36 -3 3 -12 -11 -20 -31 -32 -76 30 -137 115 -113 23 6 49 -17 265 -234
l240 -240 -528 0 c-350 0 -526 3 -522 10 9 14 -8 12 -29 -3 -16 -12 -16 -14 9
-25 15 -7 24 -8 20 -2 -4 7 168 10 516 10 l522 0 -234 -237 c-129 -131 -236
-238 -239 -237 -3 0 -17 4 -32 8 -42 12 -76 -1 -99 -37 -36 -58 3 -127 72
-127 63 0 105 63 80 118 -12 25 -5 32 231 269 l243 243 243 -242 c146 -147
240 -248 237 -256 -3 -8 -7 -26 -10 -40 -4 -21 -2 -19 8 7 16 40 42 61 78 61
36 0 68 -28 75 -65 14 -74 -88 -118 -135 -59 -12 15 -21 22 -21 17 0 -22 47
-53 82 -53 28 0 42 7 62 31 34 40 33 74 -3 110 -30 30 -67 37 -100 20 -14 -8
-59 32 -262 235 l-244 244 240 240 c198 198 244 240 262 235 19 -4 18 -1 -9
25 -25 26 -29 36 -24 63 17 89 135 89 152 0 5 -27 1 -37 -24 -63 -17 -16 -27
-30 -22 -30 11 0 37 27 51 51 15 29 2 75 -28 99 -71 56 -166 -19 -132 -104
l13 -30 -239 -233 -240 -234 -3 517 c-1 340 1 520 8 524 6 4 5 13 -3 24 -12
16 -14 16 -25 -9z m-487 -1580 c49 -48 16 -125 -54 -125 -56 0 -89 46 -70 98
21 57 82 70 124 27z"/>
</g>
</svg>
